# xmcd CD database file
#
# Track frame offsets:
#	150
#	16715
#	34151
#	50822
#	63126
#	82783
#	99494
#	114695
#	123155
#	136510
#	195282
#
# Disc length: 2880 seconds
#
# Revision: 0
# Processed by: cddbd v1.4PL0 Copyright (c) Steve Scherf et al.
# Submitted via: CDex 1.50beta10
#
DISCID=7c0b3e0b
DTITLE=Wil - Both Hands
DYEAR=2002
DGENRE=Blues
TTITLE0=Mama
TTITLE1=4 String
TTITLE2=Dance with the Devil
TTITLE3=Come Home
TTITLE4=Both Hands
TTITLE5=15 Years
TTITLE6=Feed the Dogs
TTITLE7=Wednesday
TTITLE8=Spitfire
TTITLE9=Thunderbolt
TTITLE10=Both Hands - Acoustic
EXTD=YEAR: 2002
EXTT0=
EXTT1=
EXTT2=
EXTT3=
EXTT4=
EXTT5=
EXTT6=
EXTT7=
EXTT8=
EXTT9=
EXTT10=
PLAYORDER=
